<?xml version="1.0" encoding="UTF-8"?><!DOCTYPE svg PUBLIC "-//W3C//DTD SVG 1.1//EN" "http://www.w3.org/Graphics/SVG/1.1/DTD/svg11.dtd"><svg xmlns="http://www.w3.org/2000/svg"><symbol id="bidding" viewBox="0 0 44 44"><path d="M22 0C11 0 2 9 2 20s9 20 20 20 20-9 20-20S33 0 22 0zm-.2 36c-8.8 0-16-7.2-16-16S13 4 21.8 4s16 7.2 16 16-7.2 16-16 16z"/><path d="M30 15.4l-5.7-5.7c-.8-.8-2-.8-2.8 0l-10 10c-.8.8-.8 2 0 2.8l5.7 5.7c.8.8 2 .8 2.8 0l10-10c.8-.7.8-2 0-2.8zm-11.4 8.5l-2.8-2.8 7.1-7.1 2.8 2.8-7.1 7.1zM22 44l5.7-5.6H16.3z"/><path d="M28.3 28.6l-4.9-4.9c-.8-.8-.8-2.1 0-2.8.8-.8 2.1-.8 2.8 0l4.9 4.9c.8.8.8 2.1 0 2.8-.8.8-2 .8-2.8 0z"/></symbol><symbol id="biddingEnd" viewBox="0 0 44 44"><path d="M24 8.8h-8.2c-1.1 0-2 .9-2 2v12.1c0 1.1.9 2 2 2h8.1c1.1 0 2-.9 2-2V10.8c0-1-.9-1.9-1.9-2zm-2.1 12.1h-4v-8h4v8zM26.1 31h-12c-1.1 0-2-.9-2-2s.9-2 2-2h12c1.1 0 2 .9 2 2s-.9 2-2 2z"/><path d="M22-.1c-11 0-20 9-20 20s9 20 20 20 20-9 20-20-9-20-20-20zm-.2 36c-8.8 0-16-7.2-16-16s7.2-16 16-16 16 7.2 16 16-7.2 16-16 16z"/><path d="M22 43.9l5.7-5.6H16.3zM30.5 18.9h-6c-1.1 0-2-.9-2-2s.9-2 2-2h6c1.1 0 2 .9 2 2s-.9 2-2 2z"/></symbol><symbol id="calendar" viewBox="8 -8 40 40"><path d="M47-3.513H9c-.55 0-1 .47-1 1.044v33.424C8 31.53 8.45 32 9 32h38c.55 0 1-.47 1-1.044V-2.468c0-.575-.45-1.045-1-1.045zm-2 32.634H11V-.633h34v29.754z"/><path d="M18.042 4c-.825 0-1.5-.675-1.5-1.5v-9c0-.825.675-1.5 1.5-1.5s1.5.675 1.5 1.5v9c0 .825-.675 1.5-1.5 1.5zM36.375 4c-.825 0-1.5-.675-1.5-1.5v-9c0-.825.675-1.5 1.5-1.5s1.5.675 1.5 1.5v9c0 .825-.675 1.5-1.5 1.5z"/><g><path d="M22.501 11.42h-1c-.55 0-1-.45-1-1v-1c0-.55.45-1 1-1h1c.55 0 1 .45 1 1v1c0 .55-.45 1-1 1zM28.5 11.42h-1c-.55 0-1-.45-1-1v-1c0-.55.45-1 1-1h1c.55 0 1 .45 1 1v1c0 .55-.45 1-1 1zM34.5 11.42h-1c-.55 0-1-.45-1-1v-1c0-.55.45-1 1-1h1c.55 0 1 .45 1 1v1c0 .55-.45 1-1 1zM40.5 11.42h-1c-.55 0-1-.45-1-1v-1c0-.55.45-1 1-1h1c.55 0 1 .45 1 1v1c0 .55-.45 1-1 1zM22.501 17.42h-1c-.55 0-1-.45-1-1v-1c0-.55.45-1 1-1h1c.55 0 1 .45 1 1v1c0 .55-.45 1-1 1zM28.5 17.42h-1c-.55 0-1-.45-1-1v-1c0-.55.45-1 1-1h1c.55 0 1 .45 1 1v1c0 .55-.45 1-1 1zM34.5 17.42h-1c-.55 0-1-.45-1-1v-1c0-.55.45-1 1-1h1c.55 0 1 .45 1 1v1c0 .55-.45 1-1 1zM40.5 17.42h-1c-.55 0-1-.45-1-1v-1c0-.55.45-1 1-1h1c.55 0 1 .45 1 1v1c0 .55-.45 1-1 1zM16.5 23.421h-1c-.55 0-1-.45-1-1v-1c0-.55.45-1 1-1h1c.55 0 1 .45 1 1v1c0 .55-.45 1-1 1zM16.5 17.42h-1c-.55 0-1-.45-1-1v-1c0-.55.45-1 1-1h1c.55 0 1 .45 1 1v1c0 .55-.45 1-1 1zM22.499 23.421h-1c-.55 0-1-.45-1-1v-1c0-.55.45-1 1-1h1c.55 0 1 .45 1 1v1c0 .55-.45 1-1 1zM28.499 23.421h-1c-.55 0-1-.45-1-1v-1c0-.55.45-1 1-1h1c.55 0 1 .45 1 1v1c0 .55-.45 1-1 1zM34.499 23.421h-1c-.55 0-1-.45-1-1v-1c0-.55.45-1 1-1h1c.55 0 1 .45 1 1v1c0 .55-.45 1-1 1z"/></g></symbol><symbol id="chengjiao" viewBox="0 0 44 44"><path d="M38.9 0h-18c-1.1 0-2 .9-2 2v5h22V2c0-1.1-.9-2-2-2zM18.9 16c0 1.1.9 2 2 2h18c1.1 0 2-.9 2-2v-5h-22v5zM40.8 32.3c-.2-.5-.6-.8-1-1.1-.7-.5-1.5-.8-2.3-.8-1.1 0-1.9.5-2.7 1.2-1.2.9-2.3 1.9-3.5 2.8-1 .7-2.2 1.4-3.4 1.6-.4.1-.9.1-1.4.1-2.2-.1-4.3-1.2-6-2.5-.7-.5-1.4-1.1-2-1.7h7.9c1.9 0 3.5-1.6 3.5-3.5s-1.6-3.5-3.5-3.5H13.1c0-2.7-2.3-4.9-5-4.9-2.8 0-5 2.2-5 5v14c0 2.8 2.2 5 5 5 2.2 0 4-1.4 4.7-3.3 2.8 1.4 5.9 2.4 9 3 2.2.4 4.5.6 6.7.2 3.3-.6 6-2.5 8.5-4.6 1.6-1.4 3.3-2.9 3.8-5.1.2-.7.2-1.3 0-1.9z"/></symbol><symbol id="detection" viewBox="0 0 44 44"><path d="M21 10.4c-5 0-9 4-9 9s4 9 9 9 9-4 9-9-4-9-9-9zm0 14c-2.8 0-5-2.2-5-5s2.2-5 5-5 5 2.2 5 5-2.2 5-5 5z"/><path d="M22 0C11 0 2 9 2 20s9 20 20 20 20-9 20-20S33 0 22 0zm-.2 36c-8.8 0-16-7.2-16-16S13 4 21.8 4s16 7.2 16 16-7.2 16-16 16z"/><path d="M22 44l5.7-5.6H16.3zM28 28.6l-2.9-2.9c-.8-.8-.8-2 0-2.8l.1-.1c.8-.8 2-.8 2.8 0l2.9 2.9c.8.8.8 2 0 2.8l-.1.1c-.8.8-2.1.8-2.8 0z"/></symbol><symbol id="gongxian" viewBox="0 0 44 44"><path d="M22 0C9.8 0 0 9.8 0 22s9.8 22 22 22 22-9.8 22-22S34.2 0 22 0zm7.5 12.3c2.2 0 4 1.8 4 4s-1.8 4-4 4-4-1.8-4-4 1.8-4 4-4zm-15-.3c2.2 0 4 1.8 4 4s-1.8 4-4 4-4-1.8-4-4 1.8-4 4-4zm20.3 18.4c-3.5 3.5-8.1 5.3-12.7 5.3s-9.2-1.8-12.7-5.3c-.8-.8-.8-2 0-2.8.8-.8 2-.8 2.8 0 5.5 5.5 14.3 5.5 19.8 0 .8-.8 2-.8 2.8 0s.8 2 0 2.8z"/></symbol><symbol id="gou" viewBox="0 0 44 44"><path d="M0 0v44h44V0H0zm41 41H3V3h38v38z"/><path d="M15.3 32.6c-.6-.6-.6-1.5 0-2.1l19.1-19.1c.6-.6 1.5-.6 2.1 0 .6.6.6 1.5 0 2.1L17.4 32.6c-.6.6-1.5.6-2.1 0z"/><path d="M15.3 32.6l-7.8-7.8c-.6-.6-.6-1.5 0-2.1.6-.6 1.5-.6 2.1 0l7.8 7.8c.6.6.6 1.5 0 2.1-.6.6-1.5.6-2.1 0z"/></symbol><symbol id="gps" viewBox="0 0 44 44"><path d="M22 12.356a5 5 0 1 1-.001 10.001A5 5 0 0 1 22 12.356m0-3c-4.411 0-8 3.589-8 8s3.589 8 8 8 8-3.589 8-8-3.589-8-8-8z"/><path d="M22 0C12.059 0 4 8.059 4 18c0 14.36 17.997 26 17.997 26s17.996-11.64 17.996-26H40c0-9.941-8.059-18-18-18zm14.993 18c0 10.159-10.809 19.202-14.997 22.324C17.807 37.2 7 28.159 7 18 7 9.729 13.729 3 22 3s15 6.729 15 15h-.007z"/></symbol><symbol id="huodong" viewBox="0 0 44 44"><path d="M40 16H4c-2.2 0-4-1.8-4-4s1.8-4 4-4h36c2.2 0 4 1.8 4 4s-1.8 4-4 4z"/><circle cx="18" cy="4" r="4"/><circle cx="26" cy="4" r="4"/><path d="M3.7 30.5V42c0 1.1.9 2 2 2h14.8V30.5H3.7zM23.5 44h14.2c1.1 0 2-.9 2-2V30.5H23.5V44zM37.7 8h-32c-1.1 0-2 .9-2 2v17.5h16.8V16h3v11.5h16.2V10c0-1.1-.9-2-2-2z"/></symbol><symbol id="jiance" viewBox="0 0 44 44"><circle cx="17" cy="17" r="17"/><path d="M42.9 37.3l-8.6-8.6c-.2-.2-.5-.4-.8-.6-1.5 2.1-3.3 4-5.5 5.4.2.3.4.6.6.8l8.6 8.6c1.5 1.5 4 1.5 5.6 0l.1-.1c1.5-1.5 1.5-4 0-5.5z"/></symbol><symbol id="myPerformance" viewBox="0 0 44 44"><path d="M43 0H1C.45 0 0 .45 0 1v42c0 .55.45 1 1 1h42c.55 0 1-.45 1-1V1c0-.55-.45-1-1-1zm-2 41H3V3h38v38z"/><path d="M13 20.001v14h-3v-14h3m2-3H8c-.55 0-1 .45-1 1v18c0 .55.45 1 1 1h7c.55 0 1-.45 1-1v-18c0-.55-.45-1-1-1zM24 12.001v22h-3v-22h3m2-3h-7c-.55 0-1 .45-1 1v26c0 .55.45 1 1 1h7c.55 0 1-.45 1-1v-26c0-.55-.45-1-1-1zM35 25v9.001h-3V25h3m2-3h-7c-.55 0-1 .45-1 1v13.001c0 .55.45 1 1 1h7c.55 0 1-.45 1-1V23c0-.55-.45-1-1-1z"/></symbol><symbol id="nameOfTheAgent" viewBox="0 0 44 44"><path d="M43.001 6H31V1c0-.55-.45-1-1-1H14.001c-.55 0-1 .45-1 1v5H1c-.55 0-1 .45-1 1v36c0 .55.45 1 1 1h42.001c.55 0 1-.45 1-1V7c0-.55-.45-1-1-1zM16 3h12v3H16V3zm25 38H3V18.999h14.422A4.98 4.98 0 0 0 17 21a5 5 0 0 0 10 0c0-.713-.154-1.387-.422-2.001H41V41zM20 21c0-1.103.897-2 2-2s2 .897 2 2-.897 2-2 2-2-.898-2-2zm21-5H3V9h38v7z"/></symbol><symbol id="openTheAgent" viewBox="0 0 44 44"><path d="M42.5 44h-41C.675 44 0 43.325 0 42.5S.675 41 1.5 41h41c.825 0 1.5.675 1.5 1.5s-.675 1.5-1.5 1.5zM22 3c8.271 0 15 6.729 15 15s-6.729 15-15 15S7 26.271 7 18 13.729 3 22 3m0-3C12.059 0 4 8.059 4 18s8.059 18 18 18 18-8.059 18-18S31.941 0 22 0z"/><path d="M18.818 23.304a1.505 1.505 0 0 1 0-2.121l8.486-8.486a1.505 1.505 0 0 1 2.121 0 1.505 1.505 0 0 1 0 2.121l-8.486 8.486a1.505 1.505 0 0 1-2.121 0z"/><path d="M18.818 23.304l-4.243-4.243a1.505 1.505 0 0 1 0-2.121 1.505 1.505 0 0 1 2.121 0l4.243 4.243a1.505 1.505 0 0 1 0 2.121 1.505 1.505 0 0 1-2.121 0z"/></symbol><symbol id="phone" viewBox="0 0 44 44"><path d="M22 0C11 0 2 9 2 20s9 20 20 20 20-9 20-20S33 0 22 0zm-.2 36c-8.8 0-16-7.2-16-16S13 4 21.8 4s16 7.2 16 16-7.2 16-16 16z"/><path d="M22 44l5.7-5.6H16.3zM27 30.5c-1.7 0-5.9-2.2-9.4-6.8-3.3-4.3-4.9-7.5-4.9-9.6 0-1.7 1.2-2.5 1.8-2.9l.2-.1c.7-.5 1.8-.6 2.2-.6.7 0 1 .4 1.2.8.2.3 1.4 3.1 1.6 3.4.2.5.1 1.3-.5 1.7l-.1.1c-.3.2-.9.6-1 1.1 0 .2 0 .5.2.7 1 1.3 4.2 5.2 4.8 5.8.5.4 1 .5 1.4.2.4-.3.6-.5.6-.5s.3-.3.9-.3c.4 0 .7.1 1.1.4 1 .6 3.2 2.1 3.2 2.1.3.2.7.9.2 1.8-.4.8-1.9 2.7-3.5 2.7z"/></symbol><symbol id="search" viewBox="0 0 24 24"><path fill-rule="evenodd" clip-rule="evenodd" d="M23.514 21.393l-3.756-3.756c3.274-4.311 2.955-10.48-.98-14.415C16.63 1.074 13.815 0 11 0S5.37 1.074 3.222 3.222c-4.296 4.296-4.296 11.261 0 15.556A10.965 10.965 0 0 0 11 22c2.342 0 4.679-.755 6.637-2.242l3.756 3.756a1.505 1.505 0 0 0 2.121 0 1.503 1.503 0 0 0 0-2.121zM11 19a7.948 7.948 0 0 1-5.657-2.343c-3.119-3.119-3.119-8.195 0-11.314C6.854 3.832 8.863 3 11 3s4.146.832 5.657 2.343c3.119 3.119 3.119 8.195 0 11.314A7.948 7.948 0 0 1 11 19z"/></symbol><symbol id="shutDown" viewBox="0 0 40 40"><path d="M2.123.402l37.476 37.476L37.478 40 .002 2.523z"/><path d="M0 37.877L37.476.401l2.121 2.121L2.121 39.998z"/></symbol><symbol id="successful" viewBox="0 0 44 44"><path d="M17.9 27.1l-5.7-5.7c-.8-.8-.8-2.1 0-2.8.8-.8 2.1-.8 2.8 0l5.7 5.7c.8.8.8 2.1 0 2.8-.7.7-2 .7-2.8 0z"/><path d="M17.9 24.2l11.3-11.3c.8-.8 2.1-.8 2.8 0 .8.8.8 2.1 0 2.8L20.7 27.1c-.8.8-2.1.8-2.8 0-.8-.8-.8-2.1 0-2.9z"/><path d="M22.1 0c-11 0-20 9-20 20s9 20 20 20 20-9 20-20-9-20-20-20zm-.2 36c-8.8 0-16-7.2-16-16s7.2-16 16-16 16 7.2 16 16-7.2 16-16 16z"/><path d="M22 44l5.7-5.6H16.3z"/></symbol><symbol id="switch" viewBox="0 0 44 44"><path d="M22 0C9.8 0 0 9.8 0 22s9.8 22 22 22 22-9.8 22-22S34.2 0 22 0zm0 41C11.5 41 3 32.5 3 22S11.5 3 22 3s19 8.5 19 19-8.5 19-19 19z"/><path d="M32.1 17.7l-4.2-4.2c-.6-.6-.6-1.5 0-2.1.6-.6 1.5-.6 2.1 0l4.2 4.2c.6.6.6 1.5 0 2.1-.6.6-1.5.6-2.1 0z"/><path d="M33.2 18.2h-21c-.8 0-1.5-.7-1.5-1.5s.7-1.5 1.5-1.5h21c.8 0 1.5.7 1.5 1.5s-.7 1.5-1.5 1.5zM15.3 31l-4.2-4.2c-.6-.6-.6-1.5 0-2.1.6-.6 1.5-.6 2.1 0l4.2 4.2c.6.6.6 1.5 0 2.1-.5.6-1.5.6-2.1 0z"/><path d="M33.2 27.2h-21c-.8 0-1.5-.7-1.5-1.5s.7-1.5 1.5-1.5h21c.8 0 1.5.7 1.5 1.5s-.7 1.5-1.5 1.5z"/></symbol><symbol id="trading" viewBox="0 0 44 44"><path d="M31.3 23h-9c-1.1 0-2-.9-2-2s.9-2 2-2h9c1.1 0 2 .9 2 2-.1 1.1-.9 2-2 2z"/><path d="M20.2 20.5v-11c0-1.1.9-2 2-2s2 .9 2 2v11c0 1.1-.9 2-2 2s-2-.9-2-2z"/><path d="M22 0C11 0 2 9 2 20s9 20 20 20 20-9 20-20S33 0 22 0zm-.2 36c-8.8 0-16-7.2-16-16S13 4 21.8 4s16 7.2 16 16-7.2 16-16 16z"/><path d="M22 44l5.7-5.6H16.3z"/></symbol><symbol id="waitingdetection" viewBox="0 0 44 44"><path d="M22 0C11 0 2 9 2 20s9 20 20 20 20-9 20-20S33 0 22 0zm-.2 36c-8.8 0-16-7.2-16-16S13 4 21.8 4s16 7.2 16 16-7.2 16-16 16z"/><path d="M22 44l5.7-5.6H16.3zM28 28.8l-2.9-2.9c-.8-.8-.8-2 0-2.8l.1-.1c.8-.8 2-.8 2.8 0l2.9 2.9c.8.8.8 2 0 2.8l-.1.1c-.8.8-2.1.8-2.8 0zM17 16.4c.9-1.2 2.3-2 4-2s3.1.8 4 2h4.5c-1.2-3.5-4.5-6-8.5-6s-7.3 2.5-8.5 6H17z"/><path d="M25 22.4c-.9 1.2-2.3 2-4 2s-3.1-.8-4-2h-4.5c1.2 3.5 4.5 6 8.5 6s7.3-2.5 8.5-6H25z"/><g><circle cx="14" cy="19.4" r="2"/><circle cx="21" cy="19.4" r="2"/><circle cx="28" cy="19.4" r="2"/></g></symbol></svg>