<?xml version="1.0" encoding="utf-8"?>
<!-- Generator: Adobe Illustrator 19.0.0, SVG Export Plug-In . SVG Version: 6.00 Build 0)  -->
<svg version="1.1" id="图层_1" xmlns="http://www.w3.org/2000/svg" xmlns:xlink="http://www.w3.org/1999/xlink" x="0px" y="0px"
	 viewBox="0 0 44 44" style="enable-background:new 0 0 44 44;" xml:space="preserve">
<style type="text/css">
	.st0{fill:#040000;}
</style>
<g>
	<path class="st0" d="M22,0C11,0,2,9,2,20s9,20,20,20s20-9,20-20S33,0,22,0z M21.8,36c-8.8,0-16-7.2-16-16S13,4,21.8,4s16,7.2,16,16
		S30.6,36,21.8,36z"/>
	<path d="M30,15.4l-5.7-5.7c-0.8-0.8-2-0.8-2.8,0l-10,10c-0.8,0.8-0.8,2,0,2.8l5.7,5.7c0.8,0.8,2,0.8,2.8,0l10-10
		C30.8,17.5,30.8,16.2,30,15.4z M18.6,23.9l-2.8-2.8l7.1-7.1l2.8,2.8L18.6,23.9z"/>
	<polygon class="st0" points="22,44 27.7,38.4 16.3,38.4 	"/>
	<path d="M28.3,28.6l-4.9-4.9c-0.8-0.8-0.8-2.1,0-2.8l0,0c0.8-0.8,2.1-0.8,2.8,0l4.9,4.9c0.8,0.8,0.8,2.1,0,2.8l0,0
		C30.3,29.4,29.1,29.4,28.3,28.6z"/>
</g>
</svg>
