<?xml version="1.0" encoding="utf-8"?>
<!-- Generator: Adobe Illustrator 19.0.0, SVG Export Plug-In . SVG Version: 6.00 Build 0)  -->
<svg version="1.1" id="图层_1" xmlns="http://www.w3.org/2000/svg" xmlns:xlink="http://www.w3.org/1999/xlink" x="0px" y="0px"
	 viewBox="0 0 44 44" style="enable-background:new 0 0 44 44;" xml:space="preserve">
<style type="text/css">
	.st0{fill:#040000;}
</style>
<g>
	<path d="M24,8.8h-8.2c-1.1,0-2,0.9-2,2v12.1c0,1.1,0.9,2,2,2h8.1c1.1,0,2-0.9,2-2V10.8C25.9,9.8,25,8.9,24,8.8z M21.9,20.9h-4v-8h4
		V20.9z"/>
	<path d="M26.1,31h-12c-1.1,0-2-0.9-2-2l0,0c0-1.1,0.9-2,2-2h12c1.1,0,2,0.9,2,2l0,0C28.1,30.1,27.2,31,26.1,31z"/>
	<path class="st0" d="M22-0.1c-11,0-20,9-20,20s9,20,20,20s20-9,20-20S33-0.1,22-0.1z M21.8,35.9c-8.8,0-16-7.2-16-16s7.2-16,16-16
		s16,7.2,16,16S30.6,35.9,21.8,35.9z"/>
	<polygon class="st0" points="22,43.9 27.7,38.3 16.3,38.3 	"/>
	<path d="M30.5,18.9h-6c-1.1,0-2-0.9-2-2v0c0-1.1,0.9-2,2-2h6c1.1,0,2,0.9,2,2v0C32.5,18,31.6,18.9,30.5,18.9z"/>
</g>
</svg>
