<?xml version="1.0" encoding="utf-8"?>
<!-- Generator: Adobe Illustrator 19.0.0, SVG Export Plug-In . SVG Version: 6.00 Build 0)  -->
<svg version="1.1" id="图层_1" xmlns="http://www.w3.org/2000/svg" xmlns:xlink="http://www.w3.org/1999/xlink" x="0px" y="0px"
	 viewBox="8 -8 40 40" enable-background="new 8 -8 40 40" xml:space="preserve">
<path d="M47-3.513H9c-0.55,0-1,0.47-1,1.044v33.424C8,31.53,8.45,32,9,32h38c0.55,0,1-0.47,1-1.044V-2.468
	C48-3.043,47.55-3.513,47-3.513z M45,29.121H11V-0.633h34V29.121z"/>
<g>
	<path d="M18.042,4L18.042,4c-0.825,0-1.5-0.675-1.5-1.5v-9c0-0.825,0.675-1.5,1.5-1.5h0c0.825,0,1.5,0.675,1.5,1.5v9
		C19.542,3.325,18.867,4,18.042,4z"/>
	<path d="M36.375,4L36.375,4c-0.825,0-1.5-0.675-1.5-1.5v-9c0-0.825,0.675-1.5,1.5-1.5h0c0.825,0,1.5,0.675,1.5,1.5v9
		C37.875,3.325,37.2,4,36.375,4z"/>
</g>
<g>
	<path d="M22.501,11.42h-1c-0.55,0-1-0.45-1-1v-1c0-0.55,0.45-1,1-1h1c0.55,0,1,0.45,1,1v1C23.501,10.97,23.051,11.42,22.501,11.42z
		"/>
	<path d="M28.5,11.42h-1c-0.55,0-1-0.45-1-1v-1c0-0.55,0.45-1,1-1h1c0.55,0,1,0.45,1,1v1C29.5,10.97,29.05,11.42,28.5,11.42z"/>
	<path d="M34.5,11.42h-1c-0.55,0-1-0.45-1-1v-1c0-0.55,0.45-1,1-1h1c0.55,0,1,0.45,1,1v1C35.5,10.97,35.05,11.42,34.5,11.42z"/>
	<path d="M40.5,11.42h-1c-0.55,0-1-0.45-1-1v-1c0-0.55,0.45-1,1-1h1c0.55,0,1,0.45,1,1v1C41.5,10.97,41.05,11.42,40.5,11.42z"/>
	<path d="M22.501,17.42h-1c-0.55,0-1-0.45-1-1v-1c0-0.55,0.45-1,1-1h1c0.55,0,1,0.45,1,1v1C23.501,16.97,23.051,17.42,22.501,17.42z
		"/>
	<path d="M28.5,17.42h-1c-0.55,0-1-0.45-1-1v-1c0-0.55,0.45-1,1-1h1c0.55,0,1,0.45,1,1v1C29.5,16.97,29.05,17.42,28.5,17.42z"/>
	<path d="M34.5,17.42h-1c-0.55,0-1-0.45-1-1v-1c0-0.55,0.45-1,1-1h1c0.55,0,1,0.45,1,1v1C35.5,16.97,35.05,17.42,34.5,17.42z"/>
	<path d="M40.5,17.42h-1c-0.55,0-1-0.45-1-1v-1c0-0.55,0.45-1,1-1h1c0.55,0,1,0.45,1,1v1C41.5,16.97,41.05,17.42,40.5,17.42z"/>
	<path d="M16.5,23.421h-1c-0.55,0-1-0.45-1-1v-1c0-0.55,0.45-1,1-1h1c0.55,0,1,0.45,1,1v1C17.5,22.971,17.05,23.421,16.5,23.421z"/>
	<path d="M16.5,17.42h-1c-0.55,0-1-0.45-1-1v-1c0-0.55,0.45-1,1-1h1c0.55,0,1,0.45,1,1v1C17.5,16.97,17.05,17.42,16.5,17.42z"/>
	<path d="M22.499,23.421h-1c-0.55,0-1-0.45-1-1v-1c0-0.55,0.45-1,1-1h1c0.55,0,1,0.45,1,1v1
		C23.499,22.971,23.049,23.421,22.499,23.421z"/>
	<path d="M28.499,23.421h-1c-0.55,0-1-0.45-1-1v-1c0-0.55,0.45-1,1-1h1c0.55,0,1,0.45,1,1v1
		C29.499,22.971,29.049,23.421,28.499,23.421z"/>
	<path d="M34.499,23.421h-1c-0.55,0-1-0.45-1-1v-1c0-0.55,0.45-1,1-1h1c0.55,0,1,0.45,1,1v1
		C35.499,22.971,35.049,23.421,34.499,23.421z"/>
</g>
</svg>
