<?xml version="1.0" encoding="utf-8"?>
<!-- Generator: Adobe Illustrator 19.0.0, SVG Export Plug-In . SVG Version: 6.00 Build 0)  -->
<svg version="1.1" id="图层_1" xmlns="http://www.w3.org/2000/svg" xmlns:xlink="http://www.w3.org/1999/xlink" x="0px" y="0px"
	 viewBox="0 0 44 44" style="enable-background:new 0 0 44 44;" xml:space="preserve">
<g id="XMLID_1_">
	<g id="XMLID_20_">
		<path id="XMLID_21_" d="M38.9,0h-18c-1.1,0-2,0.9-2,2v5h22V2C40.9,0.9,40,0,38.9,0z"/>
		<path id="XMLID_22_" d="M18.9,16c0,1.1,0.9,2,2,2h18c1.1,0,2-0.9,2-2v-5h-22V16z"/>
	</g>
	<path id="XMLID_25_" d="M40.8,32.3c-0.2-0.5-0.6-0.8-1-1.1c-0.7-0.5-1.5-0.8-2.3-0.8c-1.1,0-1.9,0.5-2.7,1.2
		c-1.2,0.9-2.3,1.9-3.5,2.8c-1,0.7-2.2,1.4-3.4,1.6c-0.4,0.1-0.9,0.1-1.4,0.1c-2.2-0.1-4.3-1.2-6-2.5c-0.7-0.5-1.4-1.1-2-1.7h7.9
		c1.9,0,3.5-1.6,3.5-3.5c0-1.9-1.6-3.5-3.5-3.5H13.1c0-2.7-2.3-4.9-5-4.9c-2.8,0-5,2.2-5,5v14c0,2.8,2.2,5,5,5c2.2,0,4-1.4,4.7-3.3
		c2.8,1.4,5.9,2.4,9,3c2.2,0.4,4.5,0.6,6.7,0.2c3.3-0.6,6-2.5,8.5-4.6c1.6-1.4,3.3-2.9,3.8-5.1C41,33.5,41,32.9,40.8,32.3z"/>
</g>
</svg>
