<?xml version="1.0" encoding="utf-8"?>
<!-- Generator: Adobe Illustrator 19.0.0, SVG Export Plug-In . SVG Version: 6.00 Build 0)  -->
<svg version="1.1" id="图层_1" xmlns="http://www.w3.org/2000/svg" xmlns:xlink="http://www.w3.org/1999/xlink" x="0px" y="0px"
	 viewBox="0 0 44 44" style="enable-background:new 0 0 44 44;" xml:space="preserve">
<style type="text/css">
	.st0{fill:#040000;}
</style>
<g>
	<path d="M21,10.4c-5,0-9,4-9,9c0,5,4,9,9,9s9-4,9-9C30,14.4,26,10.4,21,10.4z M21,24.4c-2.8,0-5-2.2-5-5c0-2.8,2.2-5,5-5s5,2.2,5,5
		C26,22.2,23.8,24.4,21,24.4z"/>
	<path class="st0" d="M22,0C11,0,2,9,2,20s9,20,20,20s20-9,20-20S33,0,22,0z M21.8,36c-8.8,0-16-7.2-16-16S13,4,21.8,4s16,7.2,16,16
		S30.6,36,21.8,36z"/>
	<polygon class="st0" points="22,44 27.7,38.4 16.3,38.4 	"/>
	<path d="M28,28.6l-2.9-2.9c-0.8-0.8-0.8-2,0-2.8l0.1-0.1c0.8-0.8,2-0.8,2.8,0l2.9,2.9c0.8,0.8,0.8,2,0,2.8l-0.1,0.1
		C30,29.4,28.7,29.4,28,28.6z"/>
</g>
</svg>
