<?xml version="1.0" encoding="utf-8"?>
<!-- Generator: Adobe Illustrator 19.0.0, SVG Export Plug-In . SVG Version: 6.00 Build 0)  -->
<svg version="1.1" id="图层_1" xmlns="http://www.w3.org/2000/svg" xmlns:xlink="http://www.w3.org/1999/xlink" x="0px" y="0px"
	 viewBox="0 0 44 44" style="enable-background:new 0 0 44 44;" xml:space="preserve">
<style type="text/css">
	.st0{fill:none;stroke:#F7F8F8;stroke-width:3;stroke-miterlimit:10;}
	.st1{fill:#040000;}
</style>
<path id="XMLID_7_" class="st0" d="M6.1,22"/>
<path class="st1" d="M22,0C9.8,0,0,9.8,0,22s9.8,22,22,22s22-9.8,22-22S34.2,0,22,0z M29.5,12.3c2.2,0,4,1.8,4,4s-1.8,4-4,4
	s-4-1.8-4-4S27.3,12.3,29.5,12.3z M14.5,12c2.2,0,4,1.8,4,4s-1.8,4-4,4s-4-1.8-4-4S12.3,12,14.5,12z M34.8,30.4
	c-3.5,3.5-8.1,5.3-12.7,5.3c-4.6,0-9.2-1.8-12.7-5.3c-0.8-0.8-0.8-2,0-2.8c0.8-0.8,2-0.8,2.8,0c5.5,5.5,14.3,5.5,19.8,0
	c0.8-0.8,2-0.8,2.8,0S35.6,29.6,34.8,30.4z"/>
</svg>
