<?xml version="1.0" encoding="utf-8"?>
<!-- Generator: Adobe Illustrator 19.0.0, SVG Export Plug-In . SVG Version: 6.00 Build 0)  -->
<svg version="1.1" id="图层_1" xmlns="http://www.w3.org/2000/svg" xmlns:xlink="http://www.w3.org/1999/xlink" x="0px" y="0px"
	 viewBox="0 0 44 44" style="enable-background:new 0 0 44 44;" xml:space="preserve">
<path d="M0,0v44h44V0H0z M41,41H3V3h38V41z"/>
<g>
	<path d="M15.3,32.6L15.3,32.6c-0.6-0.6-0.6-1.5,0-2.1l19.1-19.1c0.6-0.6,1.5-0.6,2.1,0l0,0c0.6,0.6,0.6,1.5,0,2.1L17.4,32.6
		C16.8,33.2,15.9,33.2,15.3,32.6z"/>
	<path d="M15.3,32.6l-7.8-7.8c-0.6-0.6-0.6-1.5,0-2.1l0,0c0.6-0.6,1.5-0.6,2.1,0l7.8,7.8c0.6,0.6,0.6,1.5,0,2.1l0,0
		C16.8,33.2,15.9,33.2,15.3,32.6z"/>
</g>
</svg>
