<?xml version="1.0" encoding="utf-8"?>
<!-- Generator: Adobe Illustrator 19.0.0, SVG Export Plug-In . SVG Version: 6.00 Build 0)  -->
<svg version="1.1" id="图层_1" xmlns="http://www.w3.org/2000/svg" xmlns:xlink="http://www.w3.org/1999/xlink" x="0px" y="0px"
	 viewBox="0 0 44 44" enable-background="new 0 0 44 44" xml:space="preserve">
<g id="XMLID_2_">
	<path id="XMLID_1_" d="M22,12.356c2.761,0,5,2.239,5,5c0,2.761-2.239,5-5,5s-5-2.239-5-5C17,14.595,19.239,12.356,22,12.356
		 M22,9.356c-4.411,0-8,3.589-8,8s3.589,8,8,8s8-3.589,8-8S26.411,9.356,22,9.356L22,9.356z"/>
	<path id="XMLID_24_" d="M22,0C12.059,0,4,8.059,4,18C4,32.36,21.997,44,21.997,44S39.993,32.36,39.993,18H40
		C40,8.059,31.941,0,22,0z M36.993,18c0,10.159-10.809,19.202-14.997,22.324C17.807,37.2,7,28.159,7,18C7,9.729,13.729,3,22,3
		s15,6.729,15,15H36.993z"/>
</g>
</svg>
