<?xml version="1.0" encoding="utf-8"?>
<!-- Generator: Adobe Illustrator 19.0.0, SVG Export Plug-In . SVG Version: 6.00 Build 0)  -->
<svg version="1.1" id="图层_1" xmlns="http://www.w3.org/2000/svg" xmlns:xlink="http://www.w3.org/1999/xlink" x="0px" y="0px"
	 viewBox="0 0 44 44" style="enable-background:new 0 0 44 44;" xml:space="preserve">
<style type="text/css">
	.st0{fill:#040000;}
</style>
<g id="XMLID_3_">
	<path id="XMLID_1_" class="st0" d="M40,16H4c-2.2,0-4-1.8-4-4v0c0-2.2,1.8-4,4-4h36c2.2,0,4,1.8,4,4v0C44,14.2,42.2,16,40,16z"/>
	<circle id="XMLID_2_" class="st0" cx="18" cy="4" r="4"/>
	<circle id="XMLID_4_" class="st0" cx="26" cy="4" r="4"/>
	<g id="XMLID_5_">
		<path id="XMLID_6_" class="st0" d="M3.7,30.5V42c0,1.1,0.9,2,2,2h14.8V30.5H3.7z"/>
		<path id="XMLID_8_" class="st0" d="M23.5,44h14.2c1.1,0,2-0.9,2-2V30.5H23.5V44z"/>
		<path id="XMLID_9_" class="st0" d="M37.7,8h-32c-1.1,0-2,0.9-2,2v17.5h16.8V16h3v11.5h16.2V10C39.7,8.9,38.8,8,37.7,8z"/>
	</g>
</g>
</svg>
