<?xml version="1.0" encoding="utf-8"?>
<!-- Generator: Adobe Illustrator 19.0.0, SVG Export Plug-In . SVG Version: 6.00 Build 0)  -->
<svg version="1.1" id="图层_1" xmlns="http://www.w3.org/2000/svg" xmlns:xlink="http://www.w3.org/1999/xlink" x="0px" y="0px"
	 viewBox="0 0 44 44" enable-background="new 0 0 44 44" xml:space="preserve">
<g>
	<path d="M43,0H1C0.45,0,0,0.45,0,1v42c0,0.55,0.45,1,1,1h42c0.55,0,1-0.45,1-1V1C44,0.45,43.55,0,43,0z M41,41H3V3h38V41z"/>
	<g>
		<path d="M13,20.001v14h-3v-14H13 M15,17.001H8c-0.55,0-1,0.45-1,1v18c0,0.55,0.45,1,1,1h7c0.55,0,1-0.45,1-1v-18
			C16,17.451,15.55,17.001,15,17.001L15,17.001z"/>
	</g>
	<g>
		<path d="M24,12.001v22h-3v-22H24 M26,9.001h-7c-0.55,0-1,0.45-1,1v26c0,0.55,0.45,1,1,1h7c0.55,0,1-0.45,1-1v-26
			C27,9.451,26.55,9.001,26,9.001L26,9.001z"/>
	</g>
	<g>
		<path d="M35,25v9.001h-3V25H35 M37,22h-7c-0.55,0-1,0.45-1,1v13.001c0,0.55,0.45,1,1,1h7c0.55,0,1-0.45,1-1V23
			C38,22.45,37.55,22,37,22L37,22z"/>
	</g>
</g>
</svg>
