<?xml version="1.0" encoding="utf-8"?>
<!-- Generator: Adobe Illustrator 19.0.0, SVG Export Plug-In . SVG Version: 6.00 Build 0)  -->
<svg version="1.1" id="图层_1" xmlns="http://www.w3.org/2000/svg" xmlns:xlink="http://www.w3.org/1999/xlink" x="0px" y="0px"
	 viewBox="0 0 44 44" style="enable-background:new 0 0 44 44;" xml:space="preserve">
<style type="text/css">
	.st0{fill:#040000;}
</style>
<g>
	<path class="st0" d="M22,0C11,0,2,9,2,20s9,20,20,20s20-9,20-20S33,0,22,0z M21.8,36c-8.8,0-16-7.2-16-16S13,4,21.8,4s16,7.2,16,16
		S30.6,36,21.8,36z"/>
	<polygon class="st0" points="22,44 27.7,38.4 16.3,38.4 	"/>
	<path d="M27,30.5c-1.7,0-5.9-2.2-9.4-6.8c-3.3-4.3-4.9-7.5-4.9-9.6c0-1.7,1.2-2.5,1.8-2.9l0.2-0.1c0.7-0.5,1.8-0.6,2.2-0.6
		c0.7,0,1,0.4,1.2,0.8c0.2,0.3,1.4,3.1,1.6,3.4c0.2,0.5,0.1,1.3-0.5,1.7l-0.1,0.1c-0.3,0.2-0.9,0.6-1,1.1c0,0.2,0,0.5,0.2,0.7
		c1,1.3,4.2,5.2,4.8,5.8c0.5,0.4,1,0.5,1.4,0.2c0.4-0.3,0.6-0.5,0.6-0.5l0,0c0,0,0.3-0.3,0.9-0.3c0.4,0,0.7,0.1,1.1,0.4
		c1,0.6,3.2,2.1,3.2,2.1l0,0c0.3,0.2,0.7,0.9,0.2,1.8C30.1,28.6,28.6,30.5,27,30.5z"/>
</g>
</svg>
