<?xml version="1.0" encoding="utf-8"?>
<!-- Generator: Adobe Illustrator 19.0.0, SVG Export Plug-In . SVG Version: 6.00 Build 0)  -->
<svg version="1.1" id="图层_1" xmlns="http://www.w3.org/2000/svg" xmlns:xlink="http://www.w3.org/1999/xlink" x="0px" y="0px"
	 viewBox="0 0 24 24" enable-background="new 0 0 24 24" xml:space="preserve">
<path id="XMLID_9_" fill-rule="evenodd" clip-rule="evenodd" fill="#262536" d="M23.514,21.393l-3.756-3.756
	c3.274-4.311,2.955-10.48-0.98-14.415C16.63,1.074,13.815,0,11,0S5.37,1.074,3.222,3.222c-4.296,4.296-4.296,11.261,0,15.556
	C5.37,20.926,8.185,22,11,22c2.342,0,4.679-0.755,6.637-2.242l3.756,3.756c0.583,0.583,1.538,0.583,2.121,0v0
	C24.098,22.931,24.098,21.976,23.514,21.393z M11,19c-2.137,0-4.146-0.832-5.657-2.343c-3.119-3.119-3.119-8.195,0-11.314
	C6.854,3.832,8.863,3,11,3s4.146,0.832,5.657,2.343c3.119,3.119,3.119,8.195,0,11.314C15.146,18.168,13.137,19,11,19z"/>
</svg>
