<?xml version="1.0" encoding="utf-8"?>
<!-- Generator: Adobe Illustrator 19.0.0, SVG Export Plug-In . SVG Version: 6.00 Build 0)  -->
<svg version="1.1" id="图层_1" xmlns="http://www.w3.org/2000/svg" xmlns:xlink="http://www.w3.org/1999/xlink" x="0px" y="0px"
	 viewBox="0 0 44 44" style="enable-background:new 0 0 44 44;" xml:space="preserve">
<style type="text/css">
	.st0{fill:#040000;}
</style>
<g>
	<g>
		<path d="M17.9,27.1l-5.7-5.7c-0.8-0.8-0.8-2.1,0-2.8l0,0c0.8-0.8,2.1-0.8,2.8,0l5.7,5.7c0.8,0.8,0.8,2.1,0,2.8l0,0
			C20,27.8,18.7,27.8,17.9,27.1z"/>
		<path d="M17.9,24.2l11.3-11.3c0.8-0.8,2.1-0.8,2.8,0l0,0c0.8,0.8,0.8,2.1,0,2.8L20.7,27.1c-0.8,0.8-2.1,0.8-2.8,0l0,0
			C17.1,26.3,17.1,25,17.9,24.2z"/>
	</g>
	<path class="st0" d="M22.1,0c-11,0-20,9-20,20s9,20,20,20s20-9,20-20S33.1,0,22.1,0z M21.9,36c-8.8,0-16-7.2-16-16s7.2-16,16-16
		s16,7.2,16,16S30.7,36,21.9,36z"/>
	<polygon class="st0" points="22,44 27.7,38.4 16.3,38.4 	"/>
</g>
</svg>
