<?xml version="1.0" encoding="utf-8"?>
<!-- Generator: Adobe Illustrator 19.0.0, SVG Export Plug-In . SVG Version: 6.00 Build 0)  -->
<svg version="1.1" id="图层_1" xmlns="http://www.w3.org/2000/svg" xmlns:xlink="http://www.w3.org/1999/xlink" x="0px" y="0px"
	 viewBox="0 0 44 44" style="enable-background:new 0 0 44 44;" xml:space="preserve">
<g>
	<path d="M22,0C9.8,0,0,9.8,0,22s9.8,22,22,22s22-9.8,22-22S34.2,0,22,0z M22,41C11.5,41,3,32.5,3,22S11.5,3,22,3s19,8.5,19,19
		S32.5,41,22,41z"/>
	<path d="M32.1,17.7l-4.2-4.2c-0.6-0.6-0.6-1.5,0-2.1l0,0c0.6-0.6,1.5-0.6,2.1,0l4.2,4.2c0.6,0.6,0.6,1.5,0,2.1l0,0
		C33.6,18.3,32.7,18.3,32.1,17.7z"/>
	<path d="M33.2,18.2h-21c-0.8,0-1.5-0.7-1.5-1.5l0,0c0-0.8,0.7-1.5,1.5-1.5h21c0.8,0,1.5,0.7,1.5,1.5l0,0
		C34.7,17.5,34,18.2,33.2,18.2z"/>
	<path d="M15.3,31l-4.2-4.2c-0.6-0.6-0.6-1.5,0-2.1l0,0c0.6-0.6,1.5-0.6,2.1,0l4.2,4.2c0.6,0.6,0.6,1.5,0,2.1l0,0
		C16.9,31.6,15.9,31.6,15.3,31z"/>
	<path d="M33.2,27.2h-21c-0.8,0-1.5-0.7-1.5-1.5l0,0c0-0.8,0.7-1.5,1.5-1.5h21c0.8,0,1.5,0.7,1.5,1.5l0,0
		C34.7,26.5,34,27.2,33.2,27.2z"/>
</g>
</svg>
