<?xml version="1.0" encoding="utf-8"?>
<!-- Generator: Adobe Illustrator 19.0.0, SVG Export Plug-In . SVG Version: 6.00 Build 0)  -->
<svg version="1.1" id="图层_1" xmlns="http://www.w3.org/2000/svg" xmlns:xlink="http://www.w3.org/1999/xlink" x="0px" y="0px"
	 viewBox="0 0 44 44" style="enable-background:new 0 0 44 44;" xml:space="preserve">
<style type="text/css">
	.st0{fill:#040000;}
</style>
<g>
	<g>
		<path d="M31.3,23h-9c-1.1,0-2-0.9-2-2l0,0c0-1.1,0.9-2,2-2h9c1.1,0,2,0.9,2,2l0,0C33.2,22.1,32.4,23,31.3,23z"/>
		<path d="M20.2,20.5v-11c0-1.1,0.9-2,2-2l0,0c1.1,0,2,0.9,2,2v11c0,1.1-0.9,2-2,2l0,0C21.1,22.5,20.2,21.6,20.2,20.5z"/>
	</g>
	<path class="st0" d="M22,0C11,0,2,9,2,20s9,20,20,20s20-9,20-20S33,0,22,0z M21.8,36c-8.8,0-16-7.2-16-16S13,4,21.8,4s16,7.2,16,16
		S30.6,36,21.8,36z"/>
	<polygon class="st0" points="22,44 27.7,38.4 16.3,38.4 	"/>
</g>
</svg>
