<?xml version="1.0" encoding="utf-8"?>
<!-- Generator: Adobe Illustrator 19.0.0, SVG Export Plug-In . SVG Version: 6.00 Build 0)  -->
<svg version="1.1" id="图层_1" xmlns="http://www.w3.org/2000/svg" xmlns:xlink="http://www.w3.org/1999/xlink" x="0px" y="0px"
	 viewBox="0 0 44 44" style="enable-background:new 0 0 44 44;" xml:space="preserve">
<style type="text/css">
	.st0{fill:#040000;}
</style>
<path class="st0" d="M22,0C11,0,2,9,2,20s9,20,20,20s20-9,20-20S33,0,22,0z M21.8,36c-8.8,0-16-7.2-16-16S13,4,21.8,4s16,7.2,16,16
	S30.6,36,21.8,36z"/>
<polygon class="st0" points="22,44 27.7,38.4 16.3,38.4 "/>
<path d="M28,28.8l-2.9-2.9c-0.8-0.8-0.8-2,0-2.8l0.1-0.1c0.8-0.8,2-0.8,2.8,0l2.9,2.9c0.8,0.8,0.8,2,0,2.8l-0.1,0.1
	C30,29.6,28.7,29.6,28,28.8z"/>
<g>
	<path d="M17,16.4c0.9-1.2,2.3-2,4-2s3.1,0.8,4,2h4.5c-1.2-3.5-4.5-6-8.5-6s-7.3,2.5-8.5,6H17z"/>
	<path d="M25,22.4c-0.9,1.2-2.3,2-4,2s-3.1-0.8-4-2h-4.5c1.2,3.5,4.5,6,8.5,6s7.3-2.5,8.5-6H25z"/>
</g>
<g>
	<circle cx="14" cy="19.4" r="2"/>
	<circle cx="21" cy="19.4" r="2"/>
	<circle cx="28" cy="19.4" r="2"/>
</g>
</svg>
